<svg xmlns="http://www.w3.org/2000/svg" viewBox="0 0 320 320" fill="#FB4B69">
  <path d="M284.4 135.4c-20.4-22.5-36.4-44.7-55.9-68-3.9-4.6-5.2-8.2-16.1-8.4-25.7-.3-74.1-2.4-102.8-1.3-8.8.4-12.6 11.7-18.2 17.6C69 107 51.9 125.5 24.1 152c-8.2 10.1 1.8 19.8 8.2 25.9 18.9 24.6 31.5 49.5 52.5 74 10.3 10.1 14.8 10.6 33.8 10.6 8.9 0 69.2-.2 82.1-1.1 19 0 17.7.4 34.2-17 10.9-13.5 33.5-39.5 48.9-59.5 7.6-9.8 14.9-17.4 15.2-22.8.4-10.6-9.1-18.8-14.6-26.7zm-73.7 107.3c-39.4-.3-68.6.9-107.5.3-22.3-26.8-39.4-55.8-61.6-82.9 19.7-19.7 30.8-30.2 47.5-52.9 7.7-10.4 15.7-20.6 23.7-30.8 41 .4 62.9.2 101.5.9 22.7 28.8 43.2 56 67.3 83.5-24.9 29-46.8 51.8-70.9 81.9z" />
</svg>
